<?xml version="1.0" encoding="UTF-8"?>
<svg width="317px" height="106px" viewBox="0 0 317 106" version="1.1" xmlns="http://www.w3.org/2000/svg" xmlns:xlink="http://www.w3.org/1999/xlink">
    <title>Group 2</title>
    <g id="Page-1" stroke="none" stroke-width="1" fill="none" fill-rule="evenodd">
        <g id="Artboard" transform="translate(-978.000000, -389.000000)">
            <g id="Group-2" transform="translate(978.370000, 389.169000)">
                <path d="M199.001,102.031 L200.254,102.031 L200.254,89.474 L199.001,89.474 L199.001,102.031 Z M190.424,101.998 L196.512,101.998 L196.512,100.787 L191.686,100.787 L191.686,89.44 L190.424,89.44 L190.424,101.998 Z M183.922,96.654 L179.62,96.654 L181.788,92.099 L183.922,96.654 Z M181.635,89.44 L175.7,101.998 L177.105,101.998 L179.061,97.857 L184.481,97.857 L186.454,101.998 L187.791,101.998 L181.94,89.44 L181.635,89.44 Z M165.565,102.065 L166.843,102.065 L166.843,96.113 L168.384,94.758 L173.075,102.065 L174.727,102.065 L169.612,93.792 L174.261,89.508 L172.364,89.508 L166.843,94.351 L166.843,89.508 L165.565,89.508 L165.565,102.065 Z M160.756,102.031 L162.009,102.031 L162.009,89.474 L160.756,89.474 L160.756,102.031 Z M150.968,102.031 L152.221,102.031 L152.221,95.875 L155.583,95.875 L155.583,94.639 L152.221,94.639 L152.221,90.71 L157.886,90.71 L157.886,89.474 L150.968,89.474 L150.968,102.031 Z M146.159,102.031 L147.412,102.031 L147.412,89.474 L146.159,89.474 L146.159,102.031 Z M139.767,90.693 L139.767,102.031 L141.045,102.031 L141.045,90.693 L143.856,90.693 L143.856,89.474 L136.964,89.474 L136.964,90.693 L139.767,90.693 Z M131.054,90.702 C131.918,90.702 132.533,90.777 132.9,90.926 C133.267,91.076 133.565,91.323 133.793,91.667 C134.022,92.011 134.136,92.392 134.136,92.81 C134.136,93.245 134.025,93.637 133.802,93.987 C133.579,94.337 133.265,94.591 132.862,94.749 C132.458,94.907 131.839,94.986 131.003,94.986 L128.844,94.969 L128.844,90.702 L131.054,90.702 Z M127.591,102.031 L128.844,102.031 L128.844,96.189 L130.478,96.189 L134.077,102.031 L135.618,102.031 L132.019,96.189 C132.46,96.189 132.98,96.055 133.582,95.787 C134.183,95.518 134.644,95.127 134.966,94.614 C135.288,94.1 135.449,93.499 135.449,92.81 C135.449,91.992 135.214,91.302 134.746,90.74 C134.277,90.178 133.67,89.813 132.925,89.643 C132.429,89.53 131.483,89.474 130.089,89.474 L127.591,89.474 L127.591,102.031 Z M117.159,102.031 L124.306,102.031 L124.306,100.787 L118.413,100.787 L118.413,95.858 L122.037,95.858 L122.037,94.639 L118.413,94.639 L118.413,90.71 L124.357,90.71 L124.357,89.474 L117.159,89.474 L117.159,102.031 Z M108.184,101.532 C108.805,101.938 109.5,102.141 110.267,102.141 C111.255,102.141 112.095,101.806 112.786,101.134 C113.478,100.462 113.824,99.669 113.824,98.754 C113.824,98.128 113.622,97.552 113.218,97.027 C112.815,96.502 112.071,95.839 110.987,95.037 C110.067,94.36 109.525,93.939 109.361,93.775 C109.056,93.482 108.848,93.205 108.735,92.946 C108.622,92.686 108.565,92.421 108.565,92.15 C108.565,91.704 108.726,91.327 109.048,91.019 C109.37,90.712 109.782,90.558 110.284,90.558 C110.679,90.558 111.043,90.658 111.377,90.858 C111.71,91.059 112.11,91.469 112.579,92.09 L113.604,91.32 C113.028,90.535 112.483,89.995 111.969,89.698 C111.456,89.402 110.905,89.254 110.318,89.254 C109.759,89.254 109.241,89.385 108.764,89.647 C108.287,89.91 107.919,90.264 107.659,90.71 C107.4,91.156 107.27,91.653 107.27,92.2 C107.27,92.895 107.493,93.536 107.939,94.123 C108.187,94.478 108.836,95.051 109.886,95.842 C110.931,96.423 111.65,96.993 112.046,97.552 C112.328,97.958 112.469,98.371 112.469,98.788 C112.469,99.161 112.373,99.511 112.181,99.838 C111.989,100.166 111.707,100.428 111.334,100.626 C110.962,100.823 110.564,100.922 110.14,100.922 C109.158,100.922 108.291,100.231 107.541,98.848 L106.474,99.491 C106.993,100.445 107.563,101.125 108.184,101.532 L108.184,101.532 Z M97.495,101.248 C97.792,99.732 97.94,98.179 97.94,96.587 C97.94,95.102 97.817,93.673 97.571,92.298 C97.326,90.923 96.989,89.731 96.56,88.72 L95.239,88.72 C95.685,89.776 96.033,91.001 96.284,92.395 C96.536,93.79 96.661,95.238 96.661,96.739 C96.661,98.365 96.496,99.939 96.166,101.46 C95.836,102.981 95.388,104.315 94.824,105.461 L96.204,105.461 C96.768,104.168 97.199,102.764 97.495,101.248 L97.495,101.248 Z M86.323,101.532 C86.944,101.938 87.638,102.141 88.406,102.141 C89.394,102.141 90.234,101.806 90.925,101.134 C91.617,100.462 91.962,99.669 91.962,98.754 C91.962,98.128 91.76,97.552 91.357,97.027 C90.953,96.502 90.21,95.839 89.126,95.037 C88.206,94.36 87.664,93.939 87.5,93.775 C87.195,93.482 86.986,93.205 86.873,92.946 C86.76,92.686 86.704,92.421 86.704,92.15 C86.704,91.704 86.865,91.327 87.187,91.019 C87.508,90.712 87.92,90.558 88.423,90.558 C88.818,90.558 89.182,90.658 89.515,90.858 C89.848,91.059 90.249,91.469 90.718,92.09 L91.742,91.32 C91.166,90.535 90.622,89.995 90.108,89.698 C89.594,89.402 89.044,89.254 88.457,89.254 C87.898,89.254 87.38,89.385 86.903,89.647 C86.426,89.91 86.057,90.264 85.798,90.71 C85.538,91.156 85.408,91.653 85.408,92.2 C85.408,92.895 85.631,93.536 86.077,94.123 C86.326,94.478 86.975,95.051 88.025,95.842 C89.069,96.423 89.789,96.993 90.184,97.552 C90.466,97.958 90.608,98.371 90.608,98.788 C90.608,99.161 90.511,99.511 90.32,99.838 C90.128,100.166 89.845,100.428 89.473,100.626 C89.1,100.823 88.702,100.922 88.279,100.922 C87.297,100.922 86.43,100.231 85.679,98.848 L84.612,99.491 C85.132,100.445 85.702,101.125 86.323,101.532 L86.323,101.532 Z M79.397,96.654 L75.096,96.654 L77.263,92.099 L79.397,96.654 Z M77.111,89.44 L71.175,101.998 L72.581,101.998 L74.537,97.857 L79.956,97.857 L81.929,101.998 L83.267,101.998 L77.416,89.44 L77.111,89.44 Z M64.52,90.702 C65.384,90.702 65.999,90.777 66.366,90.926 C66.733,91.076 67.031,91.323 67.259,91.667 C67.488,92.011 67.602,92.392 67.602,92.81 C67.602,93.245 67.491,93.637 67.268,93.987 C67.045,94.337 66.732,94.591 66.328,94.749 C65.924,94.907 65.305,94.986 64.469,94.986 L62.31,94.969 L62.31,90.702 L64.52,90.702 Z M61.057,102.031 L62.31,102.031 L62.31,96.189 L63.944,96.189 L67.543,102.031 L69.084,102.031 L65.485,96.189 C65.926,96.189 66.447,96.055 67.048,95.787 C67.649,95.518 68.11,95.127 68.432,94.614 C68.754,94.1 68.915,93.499 68.915,92.81 C68.915,91.992 68.681,91.302 68.212,90.74 C67.743,90.178 67.137,89.813 66.392,89.643 C65.895,89.53 64.949,89.474 63.555,89.474 L61.057,89.474 L61.057,102.031 Z M53.437,90.659 C54.283,90.659 54.893,90.733 55.266,90.88 C55.638,91.026 55.939,91.275 56.168,91.625 C56.396,91.975 56.51,92.364 56.51,92.793 C56.51,93.217 56.396,93.605 56.168,93.958 C55.939,94.31 55.626,94.564 55.228,94.72 C54.83,94.875 54.204,94.952 53.352,94.952 L51.218,94.927 L51.218,90.659 L53.437,90.659 Z M49.965,101.998 L51.218,101.998 L51.218,96.155 L52.116,96.155 C53.674,96.155 54.738,96.087 55.308,95.952 C56.087,95.765 56.698,95.4 57.141,94.855 C57.584,94.31 57.806,93.623 57.806,92.793 C57.806,91.958 57.58,91.266 57.129,90.719 C56.677,90.171 56.09,89.807 55.367,89.626 C54.871,89.502 53.902,89.44 52.463,89.44 L49.965,89.44 L49.965,101.998 Z M42.836,91.214 C43.677,91.697 44.329,92.342 44.792,93.149 C45.255,93.956 45.486,94.857 45.486,95.85 C45.486,96.652 45.255,97.46 44.792,98.276 C44.329,99.092 43.683,99.737 42.853,100.211 C42.023,100.685 41.123,100.922 40.152,100.922 C38.695,100.922 37.452,100.459 36.422,99.533 C35.391,98.608 34.876,97.4 34.876,95.909 C34.876,94.905 35.108,93.991 35.571,93.17 C36.034,92.349 36.681,91.697 37.514,91.214 C38.347,90.731 39.226,90.49 40.152,90.49 C41.1,90.49 41.995,90.731 42.836,91.214 L42.836,91.214 Z M36.824,90.13 C35.813,90.714 35.017,91.523 34.436,92.556 C33.855,93.589 33.564,94.707 33.564,95.909 C33.564,97.518 34.204,98.959 35.486,100.232 C36.767,101.505 38.34,102.141 40.202,102.141 C42.037,102.141 43.592,101.552 44.868,100.372 C46.144,99.192 46.782,97.685 46.782,95.85 C46.782,93.993 46.143,92.429 44.864,91.159 C43.585,89.889 41.998,89.254 40.101,89.254 C38.927,89.254 37.834,89.546 36.824,90.13 L36.824,90.13 Z M25.834,95.952 C26.889,95.952 27.632,96.002 28.061,96.104 C28.698,96.256 29.199,96.542 29.564,96.959 C29.928,97.377 30.11,97.863 30.11,98.416 C30.11,98.867 29.98,99.282 29.72,99.66 C29.461,100.039 29.118,100.318 28.691,100.499 C28.265,100.679 27.595,100.77 26.68,100.77 L23.615,100.77 L23.615,95.952 L25.834,95.952 Z M26.579,90.668 C27.454,90.668 28.092,90.832 28.492,91.159 C28.893,91.486 29.094,91.938 29.094,92.514 C29.094,92.943 28.974,93.331 28.734,93.678 C28.494,94.025 28.169,94.281 27.76,94.444 C27.351,94.608 26.711,94.69 25.842,94.69 L23.615,94.69 L23.615,90.668 L26.579,90.668 Z M22.387,101.998 L27.341,101.998 C28.577,101.998 29.565,101.649 30.305,100.952 C31.044,100.255 31.414,99.401 31.414,98.39 C31.414,97.894 31.315,97.433 31.117,97.01 C30.92,96.587 30.646,96.227 30.296,95.93 C29.946,95.634 29.441,95.373 28.78,95.147 C29.311,94.865 29.713,94.495 29.987,94.038 C30.261,93.581 30.398,93.073 30.398,92.514 C30.398,91.921 30.244,91.379 29.936,90.888 C29.628,90.397 29.207,90.033 28.67,89.796 C28.134,89.559 27.369,89.44 26.376,89.44 L22.387,89.44 L22.387,101.998 Z M11.99,102.031 L19.136,102.031 L19.136,100.787 L13.243,100.787 L13.243,95.858 L16.867,95.858 L16.867,94.639 L13.243,94.639 L13.243,90.71 L19.187,90.71 L19.187,89.474 L11.99,89.474 L11.99,102.031 Z M6.046,92.924 C5.753,94.44 5.606,96 5.606,97.603 C5.606,99.082 5.731,100.507 5.983,101.879 C6.234,103.251 6.568,104.445 6.986,105.461 L8.299,105.461 C7.858,104.405 7.511,103.18 7.257,101.786 C7.003,100.392 6.876,98.941 6.876,97.433 C6.876,95.819 7.044,94.25 7.38,92.725 C7.716,91.201 8.163,89.866 8.722,88.72 L7.342,88.72 C6.771,90.007 6.34,91.409 6.046,92.924 L6.046,92.924 Z" id="Fill-25" fill="#58595B"></path>
                <path d="M199.001,102.031 L200.254,102.031 L200.254,89.474 L199.001,89.474 L199.001,102.031 Z M190.424,101.998 L196.512,101.998 L196.512,100.787 L191.686,100.787 L191.686,89.44 L190.424,89.44 L190.424,101.998 Z M183.922,96.654 L179.62,96.654 L181.788,92.099 L183.922,96.654 Z M181.635,89.44 L175.7,101.998 L177.105,101.998 L179.061,97.857 L184.481,97.857 L186.454,101.998 L187.791,101.998 L181.94,89.44 L181.635,89.44 Z M165.565,102.065 L166.843,102.065 L166.843,96.113 L168.384,94.758 L173.075,102.065 L174.727,102.065 L169.612,93.792 L174.261,89.508 L172.364,89.508 L166.843,94.351 L166.843,89.508 L165.565,89.508 L165.565,102.065 Z M160.756,102.031 L162.009,102.031 L162.009,89.474 L160.756,89.474 L160.756,102.031 Z M150.968,102.031 L152.221,102.031 L152.221,95.875 L155.583,95.875 L155.583,94.639 L152.221,94.639 L152.221,90.71 L157.886,90.71 L157.886,89.474 L150.968,89.474 L150.968,102.031 Z M146.159,102.031 L147.412,102.031 L147.412,89.474 L146.159,89.474 L146.159,102.031 Z M139.767,90.693 L139.767,102.031 L141.045,102.031 L141.045,90.693 L143.856,90.693 L143.856,89.474 L136.964,89.474 L136.964,90.693 L139.767,90.693 Z M131.054,90.702 C131.918,90.702 132.533,90.777 132.9,90.926 C133.267,91.076 133.565,91.323 133.793,91.667 C134.022,92.011 134.136,92.392 134.136,92.81 C134.136,93.245 134.025,93.637 133.802,93.987 C133.579,94.337 133.265,94.591 132.862,94.749 C132.458,94.907 131.839,94.986 131.003,94.986 L128.844,94.969 L128.844,90.702 L131.054,90.702 Z M127.591,102.031 L128.844,102.031 L128.844,96.189 L130.478,96.189 L134.077,102.031 L135.618,102.031 L132.019,96.189 C132.46,96.189 132.98,96.055 133.582,95.787 C134.183,95.518 134.644,95.127 134.966,94.614 C135.288,94.1 135.449,93.499 135.449,92.81 C135.449,91.992 135.214,91.302 134.746,90.74 C134.277,90.178 133.67,89.813 132.925,89.643 C132.429,89.53 131.483,89.474 130.089,89.474 L127.591,89.474 L127.591,102.031 Z M117.159,102.031 L124.306,102.031 L124.306,100.787 L118.413,100.787 L118.413,95.858 L122.037,95.858 L122.037,94.639 L118.413,94.639 L118.413,90.71 L124.357,90.71 L124.357,89.474 L117.159,89.474 L117.159,102.031 Z M108.184,101.532 C108.805,101.938 109.5,102.141 110.267,102.141 C111.255,102.141 112.095,101.806 112.786,101.134 C113.478,100.462 113.824,99.669 113.824,98.754 C113.824,98.128 113.622,97.552 113.218,97.027 C112.815,96.502 112.071,95.839 110.987,95.037 C110.067,94.36 109.525,93.939 109.361,93.775 C109.056,93.482 108.848,93.205 108.735,92.946 C108.622,92.686 108.565,92.421 108.565,92.15 C108.565,91.704 108.726,91.327 109.048,91.019 C109.37,90.712 109.782,90.558 110.284,90.558 C110.679,90.558 111.043,90.658 111.377,90.858 C111.71,91.059 112.11,91.469 112.579,92.09 L113.604,91.32 C113.028,90.535 112.483,89.995 111.969,89.698 C111.456,89.402 110.905,89.254 110.318,89.254 C109.759,89.254 109.241,89.385 108.764,89.647 C108.287,89.91 107.919,90.264 107.659,90.71 C107.4,91.156 107.27,91.653 107.27,92.2 C107.27,92.895 107.493,93.536 107.939,94.123 C108.187,94.478 108.836,95.051 109.886,95.842 C110.931,96.423 111.65,96.993 112.046,97.552 C112.328,97.958 112.469,98.371 112.469,98.788 C112.469,99.161 112.373,99.511 112.181,99.838 C111.989,100.166 111.707,100.428 111.334,100.626 C110.962,100.823 110.564,100.922 110.14,100.922 C109.158,100.922 108.291,100.231 107.541,98.848 L106.474,99.491 C106.993,100.445 107.563,101.125 108.184,101.532 Z M97.495,101.248 C97.792,99.732 97.94,98.179 97.94,96.587 C97.94,95.102 97.817,93.673 97.571,92.298 C97.326,90.923 96.989,89.731 96.56,88.72 L95.239,88.72 C95.685,89.776 96.033,91.001 96.284,92.395 C96.536,93.79 96.661,95.238 96.661,96.739 C96.661,98.365 96.496,99.939 96.166,101.46 C95.836,102.981 95.388,104.315 94.824,105.461 L96.204,105.461 C96.768,104.168 97.199,102.764 97.495,101.248 Z M86.323,101.532 C86.944,101.938 87.638,102.141 88.406,102.141 C89.394,102.141 90.234,101.806 90.925,101.134 C91.617,100.462 91.962,99.669 91.962,98.754 C91.962,98.128 91.76,97.552 91.357,97.027 C90.953,96.502 90.21,95.839 89.126,95.037 C88.206,94.36 87.664,93.939 87.5,93.775 C87.195,93.482 86.986,93.205 86.873,92.946 C86.76,92.686 86.704,92.421 86.704,92.15 C86.704,91.704 86.865,91.327 87.187,91.019 C87.508,90.712 87.92,90.558 88.423,90.558 C88.818,90.558 89.182,90.658 89.515,90.858 C89.848,91.059 90.249,91.469 90.718,92.09 L91.742,91.32 C91.166,90.535 90.622,89.995 90.108,89.698 C89.594,89.402 89.044,89.254 88.457,89.254 C87.898,89.254 87.38,89.385 86.903,89.647 C86.426,89.91 86.057,90.264 85.798,90.71 C85.538,91.156 85.408,91.653 85.408,92.2 C85.408,92.895 85.631,93.536 86.077,94.123 C86.326,94.478 86.975,95.051 88.025,95.842 C89.069,96.423 89.789,96.993 90.184,97.552 C90.466,97.958 90.608,98.371 90.608,98.788 C90.608,99.161 90.511,99.511 90.32,99.838 C90.128,100.166 89.845,100.428 89.473,100.626 C89.1,100.823 88.702,100.922 88.279,100.922 C87.297,100.922 86.43,100.231 85.679,98.848 L84.612,99.491 C85.132,100.445 85.702,101.125 86.323,101.532 Z M79.397,96.654 L75.096,96.654 L77.263,92.099 L79.397,96.654 Z M77.111,89.44 L71.175,101.998 L72.581,101.998 L74.537,97.857 L79.956,97.857 L81.929,101.998 L83.267,101.998 L77.416,89.44 L77.111,89.44 Z M64.52,90.702 C65.384,90.702 65.999,90.777 66.366,90.926 C66.733,91.076 67.031,91.323 67.259,91.667 C67.488,92.011 67.602,92.392 67.602,92.81 C67.602,93.245 67.491,93.637 67.268,93.987 C67.045,94.337 66.732,94.591 66.328,94.749 C65.924,94.907 65.305,94.986 64.469,94.986 L62.31,94.969 L62.31,90.702 L64.52,90.702 Z M61.057,102.031 L62.31,102.031 L62.31,96.189 L63.944,96.189 L67.543,102.031 L69.084,102.031 L65.485,96.189 C65.926,96.189 66.447,96.055 67.048,95.787 C67.649,95.518 68.11,95.127 68.432,94.614 C68.754,94.1 68.915,93.499 68.915,92.81 C68.915,91.992 68.681,91.302 68.212,90.74 C67.743,90.178 67.137,89.813 66.392,89.643 C65.895,89.53 64.949,89.474 63.555,89.474 L61.057,89.474 L61.057,102.031 Z M53.437,90.659 C54.283,90.659 54.893,90.733 55.266,90.88 C55.638,91.026 55.939,91.275 56.168,91.625 C56.396,91.975 56.51,92.364 56.51,92.793 C56.51,93.217 56.396,93.605 56.168,93.958 C55.939,94.31 55.626,94.564 55.228,94.72 C54.83,94.875 54.204,94.952 53.352,94.952 L51.218,94.927 L51.218,90.659 L53.437,90.659 Z M49.965,101.998 L51.218,101.998 L51.218,96.155 L52.116,96.155 C53.674,96.155 54.738,96.087 55.308,95.952 C56.087,95.765 56.698,95.4 57.141,94.855 C57.584,94.31 57.806,93.623 57.806,92.793 C57.806,91.958 57.58,91.266 57.129,90.719 C56.677,90.171 56.09,89.807 55.367,89.626 C54.871,89.502 53.902,89.44 52.463,89.44 L49.965,89.44 L49.965,101.998 Z M42.836,91.214 C43.677,91.697 44.329,92.342 44.792,93.149 C45.255,93.956 45.486,94.857 45.486,95.85 C45.486,96.652 45.255,97.46 44.792,98.276 C44.329,99.092 43.683,99.737 42.853,100.211 C42.023,100.685 41.123,100.922 40.152,100.922 C38.695,100.922 37.452,100.459 36.422,99.533 C35.391,98.608 34.876,97.4 34.876,95.909 C34.876,94.905 35.108,93.991 35.571,93.17 C36.034,92.349 36.681,91.697 37.514,91.214 C38.347,90.731 39.226,90.49 40.152,90.49 C41.1,90.49 41.995,90.731 42.836,91.214 Z M36.824,90.13 C35.813,90.714 35.017,91.523 34.436,92.556 C33.855,93.589 33.564,94.707 33.564,95.909 C33.564,97.518 34.204,98.959 35.486,100.232 C36.767,101.505 38.34,102.141 40.202,102.141 C42.037,102.141 43.592,101.552 44.868,100.372 C46.144,99.192 46.782,97.685 46.782,95.85 C46.782,93.993 46.143,92.429 44.864,91.159 C43.585,89.889 41.998,89.254 40.101,89.254 C38.927,89.254 37.834,89.546 36.824,90.13 Z M25.834,95.952 C26.889,95.952 27.632,96.002 28.061,96.104 C28.698,96.256 29.199,96.542 29.564,96.959 C29.928,97.377 30.11,97.863 30.11,98.416 C30.11,98.867 29.98,99.282 29.72,99.66 C29.461,100.039 29.118,100.318 28.691,100.499 C28.265,100.679 27.595,100.77 26.68,100.77 L23.615,100.77 L23.615,95.952 L25.834,95.952 Z M26.579,90.668 C27.454,90.668 28.092,90.832 28.492,91.159 C28.893,91.486 29.094,91.938 29.094,92.514 C29.094,92.943 28.974,93.331 28.734,93.678 C28.494,94.025 28.169,94.281 27.76,94.444 C27.351,94.608 26.711,94.69 25.842,94.69 L23.615,94.69 L23.615,90.668 L26.579,90.668 Z M22.387,101.998 L27.341,101.998 C28.577,101.998 29.565,101.649 30.305,100.952 C31.044,100.255 31.414,99.401 31.414,98.39 C31.414,97.894 31.315,97.433 31.117,97.01 C30.92,96.587 30.646,96.227 30.296,95.93 C29.946,95.634 29.441,95.373 28.78,95.147 C29.311,94.865 29.713,94.495 29.987,94.038 C30.261,93.581 30.398,93.073 30.398,92.514 C30.398,91.921 30.244,91.379 29.936,90.888 C29.628,90.397 29.207,90.033 28.67,89.796 C28.134,89.559 27.369,89.44 26.376,89.44 L22.387,89.44 L22.387,101.998 Z M11.99,102.031 L19.136,102.031 L19.136,100.787 L13.243,100.787 L13.243,95.858 L16.867,95.858 L16.867,94.639 L13.243,94.639 L13.243,90.71 L19.187,90.71 L19.187,89.474 L11.99,89.474 L11.99,102.031 Z M6.046,92.924 C5.753,94.44 5.606,96 5.606,97.603 C5.606,99.082 5.731,100.507 5.983,101.879 C6.234,103.251 6.568,104.445 6.986,105.461 L8.299,105.461 C7.858,104.405 7.511,103.18 7.257,101.786 C7.003,100.392 6.876,98.941 6.876,97.433 C6.876,95.819 7.044,94.25 7.38,92.725 C7.716,91.201 8.163,89.866 8.722,88.72 L7.342,88.72 C6.771,90.007 6.34,91.409 6.046,92.924 Z" id="Stroke-27" stroke="#58595B" stroke-width="0.15"></path>
                <path d="M303.647,76.527 C303.647,77.797 303.726,78.681 303.884,79.177 C304.127,79.968 304.608,80.606 305.328,81.091 C306.048,81.577 306.916,81.819 307.932,81.819 C309.541,81.819 310.674,81.564 311.332,81.053 C311.989,80.542 312.428,79.941 312.648,79.249 C312.869,78.558 312.979,77.651 312.979,76.527 L312.979,68.949 L311.725,68.949 L311.725,76.527 C311.725,77.515 311.68,78.167 311.59,78.483 C311.471,78.935 311.285,79.34 311.031,79.698 C310.777,80.057 310.289,80.326 309.566,80.507 C308.843,80.688 308.276,80.724 307.864,80.617 C307.384,80.617 306.909,80.506 306.437,80.282 C305.966,80.06 305.617,79.783 305.392,79.453 C305.166,79.122 305.022,78.709 304.96,78.212 C304.92,77.986 304.9,77.425 304.9,76.527 L304.9,68.949 L303.647,68.949 L303.647,76.527 Z M291.124,70.337 L292.013,70.337 C293.814,70.337 295.11,70.459 295.9,70.701 C296.95,71.018 297.767,71.605 298.351,72.463 C298.936,73.321 299.228,74.357 299.228,75.57 C299.228,76.728 298.957,77.706 298.415,78.504 C297.873,79.303 297.131,79.855 296.188,80.16 C295.511,80.374 294.305,80.481 292.572,80.481 L291.124,80.481 L291.124,70.337 Z M293.919,81.675 C295.482,81.675 296.697,81.448 297.564,80.994 C298.43,80.539 299.136,79.832 299.681,78.873 C300.226,77.913 300.498,76.807 300.498,75.553 C300.498,74.097 300.155,72.842 299.469,71.789 C298.783,70.737 297.833,69.999 296.62,69.575 C295.767,69.27 294.401,69.118 292.521,69.118 L289.922,69.118 L289.922,81.675 L293.919,81.675 Z M282.166,70.38 C283.03,70.38 283.645,70.454 284.012,70.604 C284.379,70.754 284.677,71.001 284.906,71.345 C285.134,71.689 285.248,72.07 285.248,72.488 C285.248,72.923 285.137,73.315 284.914,73.665 C284.691,74.015 284.378,74.269 283.974,74.427 C283.57,74.585 282.951,74.664 282.115,74.664 L279.956,74.647 L279.956,70.38 L282.166,70.38 Z M278.703,81.709 L279.956,81.709 L279.956,75.867 L281.59,75.867 L285.189,81.709 L286.73,81.709 L283.132,75.867 C283.572,75.867 284.093,75.733 284.694,75.464 C285.295,75.196 285.757,74.805 286.078,74.292 C286.4,73.778 286.561,73.177 286.561,72.488 C286.561,71.67 286.327,70.979 285.858,70.418 C285.39,69.856 284.783,69.49 284.038,69.321 C283.541,69.208 282.595,69.152 281.201,69.152 L278.703,69.152 L278.703,81.709 Z M272.133,76.332 L267.831,76.332 L269.999,71.777 L272.133,76.332 Z M269.847,69.118 L263.911,81.675 L265.316,81.675 L267.272,77.535 L272.692,77.535 L274.665,81.675 L276.002,81.675 L270.151,69.118 L269.847,69.118 Z M257.874,70.892 C258.715,71.375 259.367,72.02 259.83,72.827 C260.293,73.634 260.524,74.534 260.524,75.528 C260.524,76.33 260.293,77.138 259.83,77.954 C259.367,78.77 258.721,79.415 257.891,79.889 C257.061,80.363 256.161,80.6 255.19,80.6 C253.733,80.6 252.49,80.137 251.46,79.211 C250.429,78.286 249.914,77.077 249.914,75.587 C249.914,74.582 250.146,73.669 250.609,72.848 C251.072,72.027 251.719,71.375 252.552,70.892 C253.385,70.409 254.264,70.168 255.19,70.168 C256.138,70.168 257.033,70.409 257.874,70.892 L257.874,70.892 Z M251.862,69.808 C250.851,70.392 250.055,71.201 249.474,72.234 C248.893,73.267 248.602,74.385 248.602,75.587 C248.602,77.196 249.243,78.637 250.524,79.91 C251.805,81.183 253.378,81.819 255.241,81.819 C257.075,81.819 258.63,81.23 259.906,80.05 C261.182,78.87 261.82,77.363 261.82,75.528 C261.82,73.671 261.181,72.107 259.902,70.837 C258.623,69.567 257.036,68.932 255.139,68.932 C253.965,68.932 252.872,69.224 251.862,69.808 L251.862,69.808 Z M240.872,75.63 C241.927,75.63 242.67,75.68 243.099,75.782 C243.737,75.934 244.238,76.219 244.602,76.637 C244.966,77.055 245.148,77.54 245.148,78.094 C245.148,78.545 245.018,78.96 244.758,79.338 C244.499,79.717 244.156,79.996 243.729,80.177 C243.303,80.357 242.633,80.448 241.718,80.448 L238.653,80.448 L238.653,75.63 L240.872,75.63 Z M241.617,70.346 C242.492,70.346 243.13,70.51 243.531,70.837 C243.931,71.164 244.132,71.616 244.132,72.192 C244.132,72.621 244.012,73.009 243.772,73.356 C243.532,73.703 243.207,73.959 242.798,74.122 C242.389,74.286 241.749,74.368 240.88,74.368 L238.653,74.368 L238.653,70.346 L241.617,70.346 Z M237.425,81.675 L242.379,81.675 C243.615,81.675 244.603,81.327 245.343,80.63 C246.082,79.933 246.452,79.079 246.452,78.068 C246.452,77.572 246.353,77.111 246.155,76.688 C245.958,76.265 245.684,75.905 245.334,75.608 C244.984,75.312 244.479,75.051 243.818,74.825 C244.349,74.543 244.751,74.173 245.025,73.716 C245.299,73.259 245.436,72.751 245.436,72.192 C245.436,71.599 245.282,71.057 244.974,70.566 C244.666,70.075 244.245,69.711 243.708,69.474 C243.172,69.236 242.407,69.118 241.414,69.118 L237.425,69.118 L237.425,81.675 Z M227.232,81.709 L228.485,81.709 L228.485,69.152 L227.232,69.152 L227.232,81.709 Z M214.785,81.709 L216.047,81.709 L216.047,75.655 L222.44,75.655 L222.44,81.709 L223.693,81.709 L223.693,69.152 L222.44,69.152 L222.44,74.419 L216.047,74.419 L216.047,69.152 L214.785,69.152 L214.785,81.709 Z M208.299,76.332 L203.998,76.332 L206.166,71.777 L208.299,76.332 Z M206.013,69.118 L200.077,81.675 L201.483,81.675 L203.439,77.535 L208.858,77.535 L210.831,81.675 L212.169,81.675 L206.318,69.118 L206.013,69.118 Z M193.422,70.38 C194.286,70.38 194.901,70.454 195.268,70.604 C195.635,70.754 195.933,71.001 196.162,71.345 C196.39,71.689 196.505,72.07 196.505,72.488 C196.505,72.923 196.393,73.315 196.17,73.665 C195.947,74.015 195.634,74.269 195.23,74.427 C194.827,74.585 194.207,74.664 193.372,74.664 L191.212,74.647 L191.212,70.38 L193.422,70.38 Z M189.959,81.709 L191.212,81.709 L191.212,75.867 L192.847,75.867 L196.445,81.709 L197.987,81.709 L194.388,75.867 C194.828,75.867 195.349,75.733 195.95,75.464 C196.551,75.196 197.013,74.805 197.335,74.292 C197.656,73.778 197.817,73.177 197.817,72.488 C197.817,71.67 197.583,70.979 197.114,70.418 C196.646,69.856 196.039,69.49 195.294,69.321 C194.797,69.208 193.851,69.152 192.457,69.152 L189.959,69.152 L189.959,81.709 Z M182.136,70.38 C183,70.38 183.615,70.454 183.982,70.604 C184.349,70.754 184.646,71.001 184.875,71.345 C185.104,71.689 185.218,72.07 185.218,72.488 C185.218,72.923 185.107,73.315 184.884,73.665 C184.661,74.015 184.347,74.269 183.944,74.427 C183.54,74.585 182.92,74.664 182.085,74.664 L179.926,74.647 L179.926,70.38 L182.136,70.38 Z M178.673,81.709 L179.926,81.709 L179.926,75.867 L181.56,75.867 L185.159,81.709 L186.7,81.709 L183.101,75.867 C183.541,75.867 184.062,75.733 184.663,75.464 C185.265,75.196 185.726,74.805 186.048,74.292 C186.37,73.778 186.531,73.177 186.531,72.488 C186.531,71.67 186.296,70.979 185.828,70.418 C185.359,69.856 184.752,69.49 184.007,69.321 C183.51,69.208 182.565,69.152 181.171,69.152 L178.673,69.152 L178.673,81.709 Z M168.241,81.709 L175.388,81.709 L175.388,80.465 L169.494,80.465 L169.494,75.536 L173.118,75.536 L173.118,74.317 L169.494,74.317 L169.494,70.388 L175.439,70.388 L175.439,69.152 L168.241,69.152 L168.241,81.709 Z M162.717,69.596 C161.771,69.131 160.711,68.898 159.537,68.898 C157.601,68.898 155.988,69.527 154.698,70.786 C153.408,72.045 152.763,73.592 152.763,75.426 C152.763,76.99 153.294,78.39 154.355,79.626 C155.625,81.088 157.361,81.819 159.562,81.819 C160.714,81.819 161.758,81.602 162.695,81.167 C163.633,80.733 164.414,80.117 165.041,79.321 L164.042,78.568 C162.862,79.945 161.391,80.634 159.63,80.634 C158.033,80.634 156.709,80.167 155.659,79.233 C154.609,78.298 154.084,77.066 154.084,75.536 C154.084,74.52 154.32,73.607 154.791,72.797 C155.262,71.987 155.924,71.342 156.777,70.862 C157.629,70.383 158.558,70.143 159.562,70.143 C160.477,70.143 161.317,70.325 162.082,70.689 C162.846,71.053 163.5,71.59 164.042,72.302 L165.041,71.557 C164.437,70.716 163.662,70.062 162.717,69.596 L162.717,69.596 Z M136.752,81.743 L138.031,81.743 L138.031,75.79 L139.572,74.436 L144.263,81.743 L145.914,81.743 L140.8,73.47 L145.448,69.186 L143.552,69.186 L138.031,74.029 L138.031,69.186 L136.752,69.186 L136.752,81.743 Z M131.943,81.709 L133.196,81.709 L133.196,69.152 L131.943,69.152 L131.943,81.709 Z M125.551,70.371 L125.551,81.709 L126.829,81.709 L126.829,70.371 L129.641,70.371 L129.641,69.152 L122.748,69.152 L122.748,70.371 L125.551,70.371 Z M115.018,81.21 C115.639,81.616 116.333,81.819 117.101,81.819 C118.089,81.819 118.928,81.484 119.62,80.812 C120.311,80.14 120.657,79.347 120.657,78.432 C120.657,77.806 120.455,77.23 120.052,76.705 C119.648,76.18 118.904,75.517 117.82,74.715 C116.9,74.038 116.358,73.617 116.195,73.453 C115.89,73.16 115.681,72.883 115.568,72.624 C115.455,72.364 115.399,72.099 115.399,71.828 C115.399,71.382 115.56,71.005 115.881,70.697 C116.203,70.39 116.615,70.236 117.118,70.236 C117.513,70.236 117.877,70.336 118.21,70.536 C118.543,70.737 118.944,71.147 119.412,71.768 L120.437,70.998 C119.861,70.213 119.316,69.673 118.803,69.376 C118.289,69.08 117.739,68.932 117.152,68.932 C116.593,68.932 116.075,69.063 115.598,69.325 C115.121,69.588 114.752,69.942 114.493,70.388 C114.233,70.834 114.103,71.331 114.103,71.878 C114.103,72.573 114.326,73.213 114.772,73.801 C115.021,74.156 115.67,74.729 116.72,75.519 C117.764,76.101 118.484,76.671 118.879,77.23 C119.161,77.636 119.302,78.048 119.302,78.466 C119.302,78.839 119.206,79.189 119.014,79.516 C118.822,79.844 118.54,80.106 118.168,80.304 C117.795,80.501 117.397,80.6 116.974,80.6 C115.992,80.6 115.125,79.909 114.374,78.525 L113.307,79.169 C113.827,80.123 114.397,80.803 115.018,81.21 L115.018,81.21 Z M108.092,76.332 L103.79,76.332 L105.958,71.777 L108.092,76.332 Z M105.806,69.118 L99.87,81.675 L101.275,81.675 L103.231,77.535 L108.651,77.535 L110.624,81.675 L111.962,81.675 L106.11,69.118 L105.806,69.118 Z M92.216,81.675 L98.304,81.675 L98.304,80.465 L93.477,80.465 L93.477,69.118 L92.216,69.118 L92.216,81.675 Z M84.663,70.337 C85.51,70.337 86.12,70.411 86.492,70.557 C86.865,70.704 87.166,70.953 87.394,71.303 C87.623,71.653 87.737,72.042 87.737,72.471 C87.737,72.894 87.623,73.283 87.394,73.635 C87.166,73.988 86.852,74.242 86.454,74.397 C86.056,74.553 85.431,74.63 84.579,74.63 L82.445,74.605 L82.445,70.337 L84.663,70.337 Z M81.192,81.675 L82.445,81.675 L82.445,75.833 L83.342,75.833 C84.9,75.833 85.964,75.765 86.535,75.63 C87.314,75.443 87.925,75.078 88.368,74.533 C88.811,73.988 89.033,73.301 89.033,72.471 C89.033,71.636 88.807,70.944 88.355,70.397 C87.903,69.849 87.316,69.485 86.594,69.304 C86.097,69.18 85.129,69.118 83.69,69.118 L81.192,69.118 L81.192,81.675 Z M70.304,76.332 L66.002,76.332 L68.17,71.777 L70.304,76.332 Z M68.017,69.118 L62.082,81.675 L63.487,81.675 L65.443,77.535 L70.862,77.535 L72.835,81.675 L74.173,81.675 L68.322,69.118 L68.017,69.118 Z M56.917,70.337 C57.764,70.337 58.373,70.411 58.746,70.557 C59.119,70.704 59.419,70.953 59.648,71.303 C59.876,71.653 59.991,72.042 59.991,72.471 C59.991,72.894 59.876,73.283 59.648,73.635 C59.419,73.988 59.106,74.242 58.708,74.397 C58.31,74.553 57.685,74.63 56.832,74.63 L54.698,74.605 L54.698,70.337 L56.917,70.337 Z M53.445,81.675 L54.698,81.675 L54.698,75.833 L55.596,75.833 C57.154,75.833 58.218,75.765 58.788,75.63 C59.567,75.443 60.178,75.078 60.622,74.533 C61.065,73.988 61.286,73.301 61.286,72.471 C61.286,71.636 61.06,70.944 60.609,70.397 C60.157,69.849 59.57,69.485 58.848,69.304 C58.351,69.18 57.383,69.118 55.943,69.118 L53.445,69.118 L53.445,81.675 Z M40.533,76.527 C40.533,77.797 40.612,78.681 40.77,79.177 C41.013,79.968 41.494,80.606 42.214,81.091 C42.933,81.577 43.801,81.819 44.817,81.819 C46.426,81.819 47.559,81.564 48.217,81.053 C48.875,80.542 49.314,79.941 49.534,79.249 C49.754,78.558 49.864,77.651 49.864,76.527 L49.864,68.949 L48.611,68.949 L48.611,76.527 C48.611,77.515 48.566,78.167 48.475,78.483 C48.357,78.935 48.171,79.34 47.917,79.698 C47.663,80.057 47.174,80.326 46.452,80.507 C45.729,80.688 45.162,80.724 44.75,80.617 C44.27,80.617 43.794,80.506 43.323,80.282 C42.851,80.06 42.503,79.783 42.277,79.453 C42.051,79.122 41.907,78.709 41.845,78.212 C41.806,77.986 41.786,77.425 41.786,76.527 L41.786,68.949 L40.533,68.949 L40.533,76.527 Z M32.735,70.38 C33.598,70.38 34.214,70.454 34.581,70.604 C34.948,70.754 35.245,71.001 35.474,71.345 C35.703,71.689 35.817,72.07 35.817,72.488 C35.817,72.923 35.705,73.315 35.482,73.665 C35.259,74.015 34.946,74.269 34.543,74.427 C34.139,74.585 33.519,74.664 32.684,74.664 L30.525,74.647 L30.525,70.38 L32.735,70.38 Z M29.271,81.709 L30.525,81.709 L30.525,75.867 L32.159,75.867 L35.758,81.709 L37.299,81.709 L33.7,75.867 C34.14,75.867 34.661,75.733 35.262,75.464 C35.864,75.196 36.325,74.805 36.647,74.292 C36.969,73.778 37.129,73.177 37.129,72.488 C37.129,71.67 36.895,70.979 36.427,70.418 C35.958,69.856 35.351,69.49 34.606,69.321 C34.109,69.208 33.164,69.152 31.769,69.152 L29.271,69.152 L29.271,81.709 Z M20.686,81.743 L20.957,81.743 L26.427,69.186 L25.055,69.186 L20.821,78.89 L16.664,69.186 L15.301,69.186 L20.686,81.743 Z M11.982,76.332 L7.68,76.332 L9.848,71.777 L11.982,76.332 Z M9.696,69.118 L3.76,81.675 L5.165,81.675 L7.122,77.535 L12.541,77.535 L14.514,81.675 L15.852,81.675 L10.001,69.118 L9.696,69.118 Z" id="Fill-28" fill="#58595B"></path>
                <path d="M303.647,76.527 C303.647,77.797 303.726,78.681 303.884,79.177 C304.127,79.968 304.608,80.606 305.328,81.091 C306.048,81.577 306.916,81.819 307.932,81.819 C309.541,81.819 310.674,81.564 311.332,81.053 C311.989,80.542 312.428,79.941 312.648,79.249 C312.869,78.558 312.979,77.651 312.979,76.527 L312.979,68.949 L311.725,68.949 L311.725,76.527 C311.725,77.515 311.68,78.167 311.59,78.483 C311.471,78.935 311.285,79.34 311.031,79.698 C310.777,80.057 310.289,80.326 309.566,80.507 C308.843,80.688 308.276,80.724 307.864,80.617 C307.384,80.617 306.909,80.506 306.437,80.282 C305.966,80.06 305.617,79.783 305.392,79.453 C305.166,79.122 305.022,78.709 304.96,78.212 C304.92,77.986 304.9,77.425 304.9,76.527 L304.9,68.949 L303.647,68.949 L303.647,76.527 Z M291.124,70.337 L292.013,70.337 C293.814,70.337 295.11,70.459 295.9,70.701 C296.95,71.018 297.767,71.605 298.351,72.463 C298.936,73.321 299.228,74.357 299.228,75.57 C299.228,76.728 298.957,77.706 298.415,78.504 C297.873,79.303 297.131,79.855 296.188,80.16 C295.511,80.374 294.305,80.481 292.572,80.481 L291.124,80.481 L291.124,70.337 Z M293.919,81.675 C295.482,81.675 296.697,81.448 297.564,80.994 C298.43,80.539 299.136,79.832 299.681,78.873 C300.226,77.913 300.498,76.807 300.498,75.553 C300.498,74.097 300.155,72.842 299.469,71.789 C298.783,70.737 297.833,69.999 296.62,69.575 C295.767,69.27 294.401,69.118 292.521,69.118 L289.922,69.118 L289.922,81.675 L293.919,81.675 Z M282.166,70.38 C283.03,70.38 283.645,70.454 284.012,70.604 C284.379,70.754 284.677,71.001 284.906,71.345 C285.134,71.689 285.248,72.07 285.248,72.488 C285.248,72.923 285.137,73.315 284.914,73.665 C284.691,74.015 284.378,74.269 283.974,74.427 C283.57,74.585 282.951,74.664 282.115,74.664 L279.956,74.647 L279.956,70.38 L282.166,70.38 Z M278.703,81.709 L279.956,81.709 L279.956,75.867 L281.59,75.867 L285.189,81.709 L286.73,81.709 L283.132,75.867 C283.572,75.867 284.093,75.733 284.694,75.464 C285.295,75.196 285.757,74.805 286.078,74.292 C286.4,73.778 286.561,73.177 286.561,72.488 C286.561,71.67 286.327,70.979 285.858,70.418 C285.39,69.856 284.783,69.49 284.038,69.321 C283.541,69.208 282.595,69.152 281.201,69.152 L278.703,69.152 L278.703,81.709 Z M272.133,76.332 L267.831,76.332 L269.999,71.777 L272.133,76.332 Z M269.847,69.118 L263.911,81.675 L265.316,81.675 L267.272,77.535 L272.692,77.535 L274.665,81.675 L276.002,81.675 L270.151,69.118 L269.847,69.118 Z M257.874,70.892 C258.715,71.375 259.367,72.02 259.83,72.827 C260.293,73.634 260.524,74.534 260.524,75.528 C260.524,76.33 260.293,77.138 259.83,77.954 C259.367,78.77 258.721,79.415 257.891,79.889 C257.061,80.363 256.161,80.6 255.19,80.6 C253.733,80.6 252.49,80.137 251.46,79.211 C250.429,78.286 249.914,77.077 249.914,75.587 C249.914,74.582 250.146,73.669 250.609,72.848 C251.072,72.027 251.719,71.375 252.552,70.892 C253.385,70.409 254.264,70.168 255.19,70.168 C256.138,70.168 257.033,70.409 257.874,70.892 Z M251.862,69.808 C250.851,70.392 250.055,71.201 249.474,72.234 C248.893,73.267 248.602,74.385 248.602,75.587 C248.602,77.196 249.243,78.637 250.524,79.91 C251.805,81.183 253.378,81.819 255.241,81.819 C257.075,81.819 258.63,81.23 259.906,80.05 C261.182,78.87 261.82,77.363 261.82,75.528 C261.82,73.671 261.181,72.107 259.902,70.837 C258.623,69.567 257.036,68.932 255.139,68.932 C253.965,68.932 252.872,69.224 251.862,69.808 Z M240.872,75.63 C241.927,75.63 242.67,75.68 243.099,75.782 C243.737,75.934 244.238,76.219 244.602,76.637 C244.966,77.055 245.148,77.54 245.148,78.094 C245.148,78.545 245.018,78.96 244.758,79.338 C244.499,79.717 244.156,79.996 243.729,80.177 C243.303,80.357 242.633,80.448 241.718,80.448 L238.653,80.448 L238.653,75.63 L240.872,75.63 Z M241.617,70.346 C242.492,70.346 243.13,70.51 243.531,70.837 C243.931,71.164 244.132,71.616 244.132,72.192 C244.132,72.621 244.012,73.009 243.772,73.356 C243.532,73.703 243.207,73.959 242.798,74.122 C242.389,74.286 241.749,74.368 240.88,74.368 L238.653,74.368 L238.653,70.346 L241.617,70.346 Z M237.425,81.675 L242.379,81.675 C243.615,81.675 244.603,81.327 245.343,80.63 C246.082,79.933 246.452,79.079 246.452,78.068 C246.452,77.572 246.353,77.111 246.155,76.688 C245.958,76.265 245.684,75.905 245.334,75.608 C244.984,75.312 244.479,75.051 243.818,74.825 C244.349,74.543 244.751,74.173 245.025,73.716 C245.299,73.259 245.436,72.751 245.436,72.192 C245.436,71.599 245.282,71.057 244.974,70.566 C244.666,70.075 244.245,69.711 243.708,69.474 C243.172,69.236 242.407,69.118 241.414,69.118 L237.425,69.118 L237.425,81.675 Z M227.232,81.709 L228.485,81.709 L228.485,69.152 L227.232,69.152 L227.232,81.709 Z M214.785,81.709 L216.047,81.709 L216.047,75.655 L222.44,75.655 L222.44,81.709 L223.693,81.709 L223.693,69.152 L222.44,69.152 L222.44,74.419 L216.047,74.419 L216.047,69.152 L214.785,69.152 L214.785,81.709 Z M208.299,76.332 L203.998,76.332 L206.166,71.777 L208.299,76.332 Z M206.013,69.118 L200.077,81.675 L201.483,81.675 L203.439,77.535 L208.858,77.535 L210.831,81.675 L212.169,81.675 L206.318,69.118 L206.013,69.118 Z M193.422,70.38 C194.286,70.38 194.901,70.454 195.268,70.604 C195.635,70.754 195.933,71.001 196.162,71.345 C196.39,71.689 196.505,72.07 196.505,72.488 C196.505,72.923 196.393,73.315 196.17,73.665 C195.947,74.015 195.634,74.269 195.23,74.427 C194.827,74.585 194.207,74.664 193.372,74.664 L191.212,74.647 L191.212,70.38 L193.422,70.38 Z M189.959,81.709 L191.212,81.709 L191.212,75.867 L192.847,75.867 L196.445,81.709 L197.987,81.709 L194.388,75.867 C194.828,75.867 195.349,75.733 195.95,75.464 C196.551,75.196 197.013,74.805 197.335,74.292 C197.656,73.778 197.817,73.177 197.817,72.488 C197.817,71.67 197.583,70.979 197.114,70.418 C196.646,69.856 196.039,69.49 195.294,69.321 C194.797,69.208 193.851,69.152 192.457,69.152 L189.959,69.152 L189.959,81.709 Z M182.136,70.38 C183,70.38 183.615,70.454 183.982,70.604 C184.349,70.754 184.646,71.001 184.875,71.345 C185.104,71.689 185.218,72.07 185.218,72.488 C185.218,72.923 185.107,73.315 184.884,73.665 C184.661,74.015 184.347,74.269 183.944,74.427 C183.54,74.585 182.92,74.664 182.085,74.664 L179.926,74.647 L179.926,70.38 L182.136,70.38 Z M178.673,81.709 L179.926,81.709 L179.926,75.867 L181.56,75.867 L185.159,81.709 L186.7,81.709 L183.101,75.867 C183.541,75.867 184.062,75.733 184.663,75.464 C185.265,75.196 185.726,74.805 186.048,74.292 C186.37,73.778 186.531,73.177 186.531,72.488 C186.531,71.67 186.296,70.979 185.828,70.418 C185.359,69.856 184.752,69.49 184.007,69.321 C183.51,69.208 182.565,69.152 181.171,69.152 L178.673,69.152 L178.673,81.709 Z M168.241,81.709 L175.388,81.709 L175.388,80.465 L169.494,80.465 L169.494,75.536 L173.118,75.536 L173.118,74.317 L169.494,74.317 L169.494,70.388 L175.439,70.388 L175.439,69.152 L168.241,69.152 L168.241,81.709 Z M162.717,69.596 C161.771,69.131 160.711,68.898 159.537,68.898 C157.601,68.898 155.988,69.527 154.698,70.786 C153.408,72.045 152.763,73.592 152.763,75.426 C152.763,76.99 153.294,78.39 154.355,79.626 C155.625,81.088 157.361,81.819 159.562,81.819 C160.714,81.819 161.758,81.602 162.695,81.167 C163.633,80.733 164.414,80.117 165.041,79.321 L164.042,78.568 C162.862,79.945 161.391,80.634 159.63,80.634 C158.033,80.634 156.709,80.167 155.659,79.233 C154.609,78.298 154.084,77.066 154.084,75.536 C154.084,74.52 154.32,73.607 154.791,72.797 C155.262,71.987 155.924,71.342 156.777,70.862 C157.629,70.383 158.558,70.143 159.562,70.143 C160.477,70.143 161.317,70.325 162.082,70.689 C162.846,71.053 163.5,71.59 164.042,72.302 L165.041,71.557 C164.437,70.716 163.662,70.062 162.717,69.596 Z M136.752,81.743 L138.031,81.743 L138.031,75.79 L139.572,74.436 L144.263,81.743 L145.914,81.743 L140.8,73.47 L145.448,69.186 L143.552,69.186 L138.031,74.029 L138.031,69.186 L136.752,69.186 L136.752,81.743 Z M131.943,81.709 L133.196,81.709 L133.196,69.152 L131.943,69.152 L131.943,81.709 Z M125.551,70.371 L125.551,81.709 L126.829,81.709 L126.829,70.371 L129.641,70.371 L129.641,69.152 L122.748,69.152 L122.748,70.371 L125.551,70.371 Z M115.018,81.21 C115.639,81.616 116.333,81.819 117.101,81.819 C118.089,81.819 118.928,81.484 119.62,80.812 C120.311,80.14 120.657,79.347 120.657,78.432 C120.657,77.806 120.455,77.23 120.052,76.705 C119.648,76.18 118.904,75.517 117.82,74.715 C116.9,74.038 116.358,73.617 116.195,73.453 C115.89,73.16 115.681,72.883 115.568,72.624 C115.455,72.364 115.399,72.099 115.399,71.828 C115.399,71.382 115.56,71.005 115.881,70.697 C116.203,70.39 116.615,70.236 117.118,70.236 C117.513,70.236 117.877,70.336 118.21,70.536 C118.543,70.737 118.944,71.147 119.412,71.768 L120.437,70.998 C119.861,70.213 119.316,69.673 118.803,69.376 C118.289,69.08 117.739,68.932 117.152,68.932 C116.593,68.932 116.075,69.063 115.598,69.325 C115.121,69.588 114.752,69.942 114.493,70.388 C114.233,70.834 114.103,71.331 114.103,71.878 C114.103,72.573 114.326,73.213 114.772,73.801 C115.021,74.156 115.67,74.729 116.72,75.519 C117.764,76.101 118.484,76.671 118.879,77.23 C119.161,77.636 119.302,78.048 119.302,78.466 C119.302,78.839 119.206,79.189 119.014,79.516 C118.822,79.844 118.54,80.106 118.168,80.304 C117.795,80.501 117.397,80.6 116.974,80.6 C115.992,80.6 115.125,79.909 114.374,78.525 L113.307,79.169 C113.827,80.123 114.397,80.803 115.018,81.21 Z M108.092,76.332 L103.79,76.332 L105.958,71.777 L108.092,76.332 Z M105.806,69.118 L99.87,81.675 L101.275,81.675 L103.231,77.535 L108.651,77.535 L110.624,81.675 L111.962,81.675 L106.11,69.118 L105.806,69.118 Z M92.216,81.675 L98.304,81.675 L98.304,80.465 L93.477,80.465 L93.477,69.118 L92.216,69.118 L92.216,81.675 Z M84.663,70.337 C85.51,70.337 86.12,70.411 86.492,70.557 C86.865,70.704 87.166,70.953 87.394,71.303 C87.623,71.653 87.737,72.042 87.737,72.471 C87.737,72.894 87.623,73.283 87.394,73.635 C87.166,73.988 86.852,74.242 86.454,74.397 C86.056,74.553 85.431,74.63 84.579,74.63 L82.445,74.605 L82.445,70.337 L84.663,70.337 Z M81.192,81.675 L82.445,81.675 L82.445,75.833 L83.342,75.833 C84.9,75.833 85.964,75.765 86.535,75.63 C87.314,75.443 87.925,75.078 88.368,74.533 C88.811,73.988 89.033,73.301 89.033,72.471 C89.033,71.636 88.807,70.944 88.355,70.397 C87.903,69.849 87.316,69.485 86.594,69.304 C86.097,69.18 85.129,69.118 83.69,69.118 L81.192,69.118 L81.192,81.675 Z M70.304,76.332 L66.002,76.332 L68.17,71.777 L70.304,76.332 Z M68.017,69.118 L62.082,81.675 L63.487,81.675 L65.443,77.535 L70.862,77.535 L72.835,81.675 L74.173,81.675 L68.322,69.118 L68.017,69.118 Z M56.917,70.337 C57.764,70.337 58.373,70.411 58.746,70.557 C59.119,70.704 59.419,70.953 59.648,71.303 C59.876,71.653 59.991,72.042 59.991,72.471 C59.991,72.894 59.876,73.283 59.648,73.635 C59.419,73.988 59.106,74.242 58.708,74.397 C58.31,74.553 57.685,74.63 56.832,74.63 L54.698,74.605 L54.698,70.337 L56.917,70.337 Z M53.445,81.675 L54.698,81.675 L54.698,75.833 L55.596,75.833 C57.154,75.833 58.218,75.765 58.788,75.63 C59.567,75.443 60.178,75.078 60.622,74.533 C61.065,73.988 61.286,73.301 61.286,72.471 C61.286,71.636 61.06,70.944 60.609,70.397 C60.157,69.849 59.57,69.485 58.848,69.304 C58.351,69.18 57.383,69.118 55.943,69.118 L53.445,69.118 L53.445,81.675 Z M40.533,76.527 C40.533,77.797 40.612,78.681 40.77,79.177 C41.013,79.968 41.494,80.606 42.214,81.091 C42.933,81.577 43.801,81.819 44.817,81.819 C46.426,81.819 47.559,81.564 48.217,81.053 C48.875,80.542 49.314,79.941 49.534,79.249 C49.754,78.558 49.864,77.651 49.864,76.527 L49.864,68.949 L48.611,68.949 L48.611,76.527 C48.611,77.515 48.566,78.167 48.475,78.483 C48.357,78.935 48.171,79.34 47.917,79.698 C47.663,80.057 47.174,80.326 46.452,80.507 C45.729,80.688 45.162,80.724 44.75,80.617 C44.27,80.617 43.794,80.506 43.323,80.282 C42.851,80.06 42.503,79.783 42.277,79.453 C42.051,79.122 41.907,78.709 41.845,78.212 C41.806,77.986 41.786,77.425 41.786,76.527 L41.786,68.949 L40.533,68.949 L40.533,76.527 Z M32.735,70.38 C33.598,70.38 34.214,70.454 34.581,70.604 C34.948,70.754 35.245,71.001 35.474,71.345 C35.703,71.689 35.817,72.07 35.817,72.488 C35.817,72.923 35.705,73.315 35.482,73.665 C35.259,74.015 34.946,74.269 34.543,74.427 C34.139,74.585 33.519,74.664 32.684,74.664 L30.525,74.647 L30.525,70.38 L32.735,70.38 Z M29.271,81.709 L30.525,81.709 L30.525,75.867 L32.159,75.867 L35.758,81.709 L37.299,81.709 L33.7,75.867 C34.14,75.867 34.661,75.733 35.262,75.464 C35.864,75.196 36.325,74.805 36.647,74.292 C36.969,73.778 37.129,73.177 37.129,72.488 C37.129,71.67 36.895,70.979 36.427,70.418 C35.958,69.856 35.351,69.49 34.606,69.321 C34.109,69.208 33.164,69.152 31.769,69.152 L29.271,69.152 L29.271,81.709 Z M20.686,81.743 L20.957,81.743 L26.427,69.186 L25.055,69.186 L20.821,78.89 L16.664,69.186 L15.301,69.186 L20.686,81.743 Z M11.982,76.332 L7.68,76.332 L9.848,71.777 L11.982,76.332 Z M9.696,69.118 L3.76,81.675 L5.165,81.675 L7.122,77.535 L12.541,77.535 L14.514,81.675 L15.852,81.675 L10.001,69.118 L9.696,69.118 Z" id="Stroke-29" stroke="#58595B" stroke-width="0.15"></path>
                <line x1="0" y1="27.834" x2="315.912" y2="27.834" id="Stroke-30" stroke="#58595B"></line>
                <path d="M232.5,2.865 C233.061,2.865 233.515,2.43 233.515,1.893 C233.515,1.356 233.061,0.921 232.5,0.921 C231.94,0.921 231.486,1.356 231.486,1.893 C231.486,2.43 231.94,2.865 232.5,2.865" id="Fill-31" fill="#58595B"></path>
                <path d="M305.957,43.987 L306.844,43.987 L306.844,39.732 L311.337,39.732 L311.337,43.987 L312.218,43.987 L312.218,35.161 L311.337,35.161 L311.337,38.863 L306.844,38.863 L306.844,35.161 L305.957,35.161 L305.957,43.987 Z M300.302,40.208 L297.278,40.208 L298.802,37.006 L300.302,40.208 Z M298.695,35.138 L294.523,43.964 L295.511,43.964 L296.886,41.053 L300.694,41.053 L302.081,43.964 L303.021,43.964 L298.909,35.138 L298.695,35.138 Z M288.749,36.024 C289.356,36.024 289.788,36.077 290.046,36.182 C290.304,36.287 290.513,36.461 290.674,36.703 C290.834,36.945 290.915,37.213 290.915,37.506 C290.915,37.812 290.836,38.088 290.68,38.334 C290.523,38.58 290.303,38.758 290.019,38.869 C289.735,38.98 289.3,39.036 288.713,39.036 L287.195,39.024 L287.195,36.024 L288.749,36.024 Z M286.314,43.987 L287.195,43.987 L287.195,39.881 L288.344,39.881 L290.873,43.987 L291.956,43.987 L289.427,39.881 C289.736,39.881 290.102,39.787 290.525,39.598 C290.948,39.41 291.272,39.135 291.498,38.774 C291.724,38.413 291.837,37.99 291.837,37.506 C291.837,36.931 291.673,36.446 291.343,36.051 C291.014,35.656 290.587,35.399 290.064,35.28 C289.715,35.201 289.05,35.161 288.07,35.161 L286.314,35.161 L286.314,43.987 Z M279.719,36.024 C280.326,36.024 280.758,36.077 281.016,36.182 C281.274,36.287 281.483,36.461 281.644,36.703 C281.805,36.945 281.885,37.213 281.885,37.506 C281.885,37.812 281.807,38.088 281.65,38.334 C281.493,38.58 281.273,38.758 280.989,38.869 C280.706,38.98 280.27,39.036 279.683,39.036 L278.165,39.024 L278.165,36.024 L279.719,36.024 Z M277.285,43.987 L278.165,43.987 L278.165,39.881 L279.314,39.881 L281.843,43.987 L282.927,43.987 L280.397,39.881 C280.707,39.881 281.073,39.787 281.495,39.598 C281.918,39.41 282.242,39.135 282.468,38.774 C282.694,38.413 282.808,37.99 282.808,37.506 C282.808,36.931 282.643,36.446 282.314,36.051 C281.984,35.656 281.558,35.399 281.034,35.28 C280.685,35.201 280.02,35.161 279.04,35.161 L277.285,35.161 L277.285,43.987 Z M268.856,43.987 L273.879,43.987 L273.879,43.113 L269.737,43.113 L269.737,39.649 L272.284,39.649 L272.284,38.792 L269.737,38.792 L269.737,36.03 L273.915,36.03 L273.915,35.161 L268.856,35.161 L268.856,43.987 Z M263.876,35.474 C263.212,35.147 262.467,34.983 261.641,34.983 C260.281,34.983 259.147,35.425 258.24,36.31 C257.334,37.195 256.88,38.282 256.88,39.571 C256.88,40.671 257.253,41.654 257.999,42.523 C258.892,43.551 260.112,44.065 261.659,44.065 C262.469,44.065 263.203,43.912 263.861,43.607 C264.52,43.301 265.069,42.869 265.51,42.309 L264.808,41.779 C263.978,42.748 262.945,43.232 261.707,43.232 C260.584,43.232 259.654,42.903 258.916,42.247 C258.178,41.59 257.809,40.724 257.809,39.649 C257.809,38.935 257.974,38.293 258.306,37.724 C258.637,37.154 259.102,36.701 259.701,36.364 C260.3,36.026 260.953,35.858 261.659,35.858 C262.302,35.858 262.892,35.986 263.43,36.242 C263.967,36.498 264.427,36.875 264.808,37.375 L265.51,36.852 C265.085,36.26 264.541,35.801 263.876,35.474 L263.876,35.474 Z M243.433,44.011 L244.332,44.011 L244.332,39.827 L245.415,38.875 L248.712,44.011 L249.873,44.011 L246.278,38.197 L249.545,35.185 L248.212,35.185 L244.332,38.589 L244.332,35.185 L243.433,35.185 L243.433,44.011 Z M238.956,43.987 L239.837,43.987 L239.837,35.161 L238.956,35.161 L238.956,43.987 Z M233.366,36.018 L233.366,43.987 L234.265,43.987 L234.265,36.018 L236.241,36.018 L236.241,35.161 L231.396,35.161 L231.396,36.018 L233.366,36.018 Z M223.884,43.987 L228.907,43.987 L228.907,43.113 L224.765,43.113 L224.765,39.649 L227.312,39.649 L227.312,38.792 L224.765,38.792 L224.765,36.03 L228.943,36.03 L228.943,35.161 L223.884,35.161 L223.884,43.987 Z M218.164,36.018 L218.164,43.987 L219.062,43.987 L219.062,36.018 L221.038,36.018 L221.038,35.161 L216.194,35.161 L216.194,36.018 L218.164,36.018 Z M209.664,43.636 C210.1,43.922 210.588,44.065 211.128,44.065 C211.822,44.065 212.412,43.829 212.898,43.357 C213.384,42.884 213.627,42.327 213.627,41.684 C213.627,41.244 213.485,40.839 213.202,40.47 C212.918,40.101 212.395,39.635 211.633,39.072 C210.987,38.595 210.606,38.3 210.491,38.185 C210.277,37.979 210.13,37.784 210.05,37.602 C209.971,37.419 209.931,37.233 209.931,37.042 C209.931,36.729 210.044,36.464 210.271,36.248 C210.497,36.031 210.786,35.923 211.14,35.923 C211.417,35.923 211.673,35.994 211.907,36.134 C212.141,36.275 212.423,36.564 212.752,37 L213.472,36.459 C213.068,35.907 212.685,35.527 212.324,35.319 C211.963,35.111 211.576,35.007 211.163,35.007 C210.771,35.007 210.406,35.099 210.071,35.283 C209.736,35.468 209.477,35.717 209.295,36.03 C209.112,36.344 209.021,36.693 209.021,37.078 C209.021,37.566 209.177,38.016 209.491,38.429 C209.666,38.679 210.122,39.081 210.86,39.637 C211.594,40.046 212.1,40.446 212.377,40.839 C212.576,41.125 212.675,41.414 212.675,41.708 C212.675,41.97 212.607,42.216 212.473,42.446 C212.338,42.676 212.139,42.861 211.877,42.999 C211.616,43.138 211.336,43.208 211.038,43.208 C210.348,43.208 209.739,42.722 209.211,41.75 L208.461,42.202 C208.826,42.873 209.227,43.351 209.664,43.636 L209.664,43.636 Z M200.985,43.987 L206.008,43.987 L206.008,43.113 L201.866,43.113 L201.866,39.649 L204.413,39.649 L204.413,38.792 L201.866,38.792 L201.866,36.03 L206.044,36.03 L206.044,35.161 L200.985,35.161 L200.985,43.987 Z M187.74,43.987 L192.763,43.987 L192.763,43.113 L188.621,43.113 L188.621,39.649 L191.168,39.649 L191.168,38.792 L188.621,38.792 L188.621,36.03 L192.799,36.03 L192.799,35.161 L187.74,35.161 L187.74,43.987 Z M180.651,44.011 L180.841,44.011 L184.686,35.185 L183.722,35.185 L180.746,42.006 L177.824,35.185 L176.865,35.185 L180.651,44.011 Z M165.245,43.987 L166.126,43.987 L166.126,39.661 L168.489,39.661 L168.489,38.792 L166.126,38.792 L166.126,36.03 L170.108,36.03 L170.108,35.161 L165.245,35.161 L165.245,43.987 Z M160.769,43.987 L161.649,43.987 L161.649,35.161 L160.769,35.161 L160.769,43.987 Z M155.179,36.018 L155.179,43.987 L156.077,43.987 L156.077,36.018 L158.053,36.018 L158.053,35.161 L153.209,35.161 L153.209,36.018 L155.179,36.018 Z M145.084,44.011 L145.982,44.011 L145.982,39.827 L147.065,38.875 L150.363,44.011 L151.523,44.011 L147.928,38.197 L151.196,35.185 L149.863,35.185 L145.982,38.589 L145.982,35.185 L145.084,35.185 L145.084,44.011 Z M139.357,33.956 C139.222,34.093 139.155,34.257 139.155,34.447 C139.155,34.642 139.222,34.806 139.357,34.941 C139.492,35.076 139.656,35.144 139.851,35.144 C140.041,35.144 140.205,35.076 140.342,34.941 C140.479,34.806 140.547,34.642 140.547,34.447 C140.547,34.257 140.479,34.093 140.342,33.956 C140.205,33.819 140.041,33.751 139.851,33.751 C139.656,33.751 139.492,33.819 139.357,33.956 L139.357,33.956 Z M136.905,33.956 C136.77,34.093 136.703,34.257 136.703,34.447 C136.703,34.642 136.77,34.806 136.905,34.941 C137.04,35.076 137.206,35.144 137.405,35.144 C137.595,35.144 137.758,35.076 137.893,34.941 C138.028,34.806 138.095,34.642 138.095,34.447 C138.095,34.257 138.028,34.093 137.893,33.956 C137.758,33.819 137.595,33.751 137.405,33.751 C137.206,33.751 137.04,33.819 136.905,33.956 L136.905,33.956 Z M135.703,40.649 C135.703,41.47 135.758,42.039 135.869,42.357 C136.04,42.873 136.378,43.286 136.884,43.598 C137.39,43.909 138,44.065 138.714,44.065 C139.369,44.065 139.927,43.899 140.39,43.568 C140.852,43.237 141.16,42.849 141.315,42.404 C141.47,41.96 141.547,41.375 141.547,40.649 L141.547,35.751 L140.666,35.751 L140.666,40.649 C140.666,41.288 140.634,41.71 140.571,41.916 C140.488,42.202 140.357,42.446 140.178,42.648 C140,42.851 139.776,43.008 139.506,43.121 C139.236,43.235 138.956,43.291 138.667,43.291 C138.329,43.291 137.995,43.219 137.664,43.074 C137.332,42.929 137.087,42.75 136.929,42.535 C136.77,42.321 136.669,42.055 136.625,41.738 C136.597,41.595 136.584,41.232 136.584,40.649 L136.584,35.751 L135.703,35.751 L135.703,40.649 Z M129.125,36.024 C129.732,36.024 130.164,36.077 130.422,36.182 C130.68,36.287 130.89,36.461 131.05,36.703 C131.211,36.945 131.291,37.213 131.291,37.506 C131.291,37.812 131.213,38.088 131.056,38.334 C130.899,38.58 130.679,38.758 130.396,38.869 C130.112,38.98 129.676,39.036 129.089,39.036 L127.572,39.024 L127.572,36.024 L129.125,36.024 Z M126.691,43.987 L127.572,43.987 L127.572,39.881 L128.72,39.881 L131.25,43.987 L132.333,43.987 L129.803,39.881 C130.113,39.881 130.479,39.787 130.902,39.598 C131.324,39.41 131.648,39.135 131.875,38.774 C132.101,38.413 132.214,37.99 132.214,37.506 C132.214,36.931 132.049,36.446 131.72,36.051 C131.39,35.656 130.964,35.399 130.44,35.28 C130.091,35.201 129.427,35.161 128.447,35.161 L126.691,35.161 L126.691,43.987 Z M120.928,36.018 L120.928,43.987 L121.827,43.987 L121.827,36.018 L123.803,36.018 L123.803,35.161 L118.959,35.161 L118.959,36.018 L120.928,36.018 Z M112.428,43.636 C112.865,43.922 113.353,44.065 113.892,44.065 C114.587,44.065 115.177,43.829 115.663,43.357 C116.149,42.884 116.392,42.327 116.392,41.684 C116.392,41.244 116.25,40.839 115.967,40.47 C115.683,40.101 115.16,39.635 114.398,39.072 C113.752,38.595 113.371,38.3 113.256,38.185 C113.041,37.979 112.895,37.784 112.815,37.602 C112.736,37.419 112.696,37.233 112.696,37.042 C112.696,36.729 112.809,36.464 113.035,36.248 C113.262,36.031 113.551,35.923 113.904,35.923 C114.182,35.923 114.438,35.994 114.672,36.134 C114.906,36.275 115.188,36.564 115.517,37 L116.237,36.459 C115.833,35.907 115.45,35.527 115.089,35.319 C114.728,35.111 114.341,35.007 113.928,35.007 C113.535,35.007 113.171,35.099 112.836,35.283 C112.501,35.468 112.242,35.717 112.059,36.03 C111.877,36.344 111.786,36.693 111.786,37.078 C111.786,37.566 111.942,38.016 112.256,38.429 C112.43,38.679 112.887,39.081 113.625,39.637 C114.359,40.046 114.864,40.446 115.142,40.839 C115.341,41.125 115.44,41.414 115.44,41.708 C115.44,41.97 115.372,42.216 115.237,42.446 C115.103,42.676 114.904,42.861 114.642,42.999 C114.38,43.138 114.101,43.208 113.803,43.208 C113.113,43.208 112.504,42.722 111.976,41.75 L111.226,42.202 C111.591,42.873 111.992,43.351 112.428,43.636 L112.428,43.636 Z M102.399,43.987 L102.399,37.316 L108.207,43.987 L108.41,43.987 L108.41,35.161 L107.541,35.161 L107.541,41.916 L101.673,35.161 L101.482,35.161 L101.482,43.987 L102.399,43.987 Z M95.363,36.384 C95.954,36.724 96.412,37.177 96.738,37.744 C97.063,38.312 97.226,38.945 97.226,39.643 C97.226,40.206 97.063,40.775 96.738,41.348 C96.412,41.921 95.958,42.375 95.375,42.708 C94.791,43.041 94.159,43.208 93.476,43.208 C92.453,43.208 91.579,42.882 90.855,42.232 C90.13,41.581 89.768,40.732 89.768,39.685 C89.768,38.978 89.931,38.337 90.256,37.759 C90.582,37.182 91.037,36.724 91.622,36.384 C92.208,36.045 92.825,35.876 93.476,35.876 C94.143,35.876 94.772,36.045 95.363,36.384 L95.363,36.384 Z M91.137,35.623 C90.427,36.033 89.868,36.602 89.459,37.328 C89.05,38.054 88.846,38.839 88.846,39.685 C88.846,40.815 89.296,41.828 90.197,42.723 C91.098,43.617 92.203,44.065 93.512,44.065 C94.801,44.065 95.894,43.65 96.791,42.821 C97.688,41.992 98.136,40.932 98.136,39.643 C98.136,38.338 97.687,37.238 96.788,36.346 C95.89,35.453 94.774,35.007 93.44,35.007 C92.615,35.007 91.847,35.212 91.137,35.623 L91.137,35.623 Z M80.233,44.011 L81.132,44.011 L81.132,39.827 L82.215,38.875 L85.512,44.011 L86.672,44.011 L83.078,38.197 L86.345,35.185 L85.012,35.185 L81.132,38.589 L81.132,35.185 L80.233,35.185 L80.233,44.011 Z M71.852,43.987 L76.875,43.987 L76.875,43.113 L72.733,43.113 L72.733,39.649 L75.28,39.649 L75.28,38.792 L72.733,38.792 L72.733,36.03 L76.911,36.03 L76.911,35.161 L71.852,35.161 L71.852,43.987 Z M65.298,36.024 C65.905,36.024 66.337,36.077 66.595,36.182 C66.853,36.287 67.062,36.461 67.223,36.703 C67.384,36.945 67.464,37.213 67.464,37.506 C67.464,37.812 67.386,38.088 67.229,38.334 C67.072,38.58 66.852,38.758 66.569,38.869 C66.285,38.98 65.849,39.036 65.262,39.036 L63.745,39.024 L63.745,36.024 L65.298,36.024 Z M62.864,43.987 L63.745,43.987 L63.745,39.881 L64.893,39.881 L67.423,43.987 L68.506,43.987 L65.976,39.881 C66.286,39.881 66.652,39.787 67.074,39.598 C67.497,39.41 67.821,39.135 68.047,38.774 C68.274,38.413 68.387,37.99 68.387,37.506 C68.387,36.931 68.222,36.446 67.893,36.051 C67.563,35.656 67.137,35.399 66.613,35.28 C66.264,35.201 65.599,35.161 64.619,35.161 L62.864,35.161 L62.864,43.987 Z M48.964,44.011 L49.863,44.011 L49.863,39.827 L50.946,38.875 L54.243,44.011 L55.404,44.011 L51.809,38.197 L55.076,35.185 L53.743,35.185 L49.863,38.589 L49.863,35.185 L48.964,35.185 L48.964,44.011 Z M44.487,43.987 L45.368,43.987 L45.368,35.161 L44.487,35.161 L44.487,43.987 Z M38.898,36.018 L38.898,43.987 L39.796,43.987 L39.796,36.018 L41.772,36.018 L41.772,35.161 L36.928,35.161 L36.928,36.018 L38.898,36.018 Z M30.398,43.636 C30.834,43.922 31.322,44.065 31.862,44.065 C32.556,44.065 33.146,43.829 33.632,43.357 C34.118,42.884 34.361,42.327 34.361,41.684 C34.361,41.244 34.219,40.839 33.936,40.47 C33.652,40.101 33.129,39.635 32.367,39.072 C31.721,38.595 31.34,38.3 31.225,38.185 C31.011,37.979 30.864,37.784 30.784,37.602 C30.705,37.419 30.665,37.233 30.665,37.042 C30.665,36.729 30.778,36.464 31.005,36.248 C31.231,36.031 31.52,35.923 31.873,35.923 C32.151,35.923 32.407,35.994 32.641,36.134 C32.875,36.275 33.157,36.564 33.486,37 L34.206,36.459 C33.802,35.907 33.419,35.527 33.058,35.319 C32.697,35.111 32.31,35.007 31.897,35.007 C31.504,35.007 31.14,35.099 30.805,35.283 C30.47,35.468 30.211,35.717 30.029,36.03 C29.846,36.344 29.755,36.693 29.755,37.078 C29.755,37.566 29.911,38.016 30.225,38.429 C30.399,38.679 30.856,39.081 31.594,39.637 C32.328,40.046 32.834,40.446 33.111,40.839 C33.31,41.125 33.409,41.414 33.409,41.708 C33.409,41.97 33.341,42.216 33.207,42.446 C33.072,42.676 32.873,42.861 32.611,42.999 C32.35,43.138 32.07,43.208 31.772,43.208 C31.082,43.208 30.473,42.722 29.945,41.75 L29.195,42.202 C29.56,42.873 29.961,43.351 30.398,43.636 L30.398,43.636 Z M24.433,40.208 L21.409,40.208 L22.933,37.006 L24.433,40.208 Z M22.826,35.138 L18.654,43.964 L19.642,43.964 L21.017,41.053 L24.826,41.053 L26.212,43.964 L27.153,43.964 L23.04,35.138 L22.826,35.138 Z M12.177,43.964 L16.456,43.964 L16.456,43.113 L13.064,43.113 L13.064,35.138 L12.177,35.138 L12.177,43.964 Z M5.772,35.995 C6.367,35.995 6.796,36.046 7.058,36.149 C7.32,36.253 7.531,36.427 7.692,36.673 C7.852,36.919 7.933,37.193 7.933,37.494 C7.933,37.792 7.852,38.065 7.692,38.313 C7.531,38.561 7.311,38.739 7.031,38.848 C6.751,38.958 6.312,39.012 5.713,39.012 L4.213,38.994 L4.213,35.995 L5.772,35.995 Z M3.332,43.964 L4.213,43.964 L4.213,39.857 L4.844,39.857 C5.939,39.857 6.687,39.81 7.087,39.714 C7.635,39.583 8.064,39.327 8.376,38.944 C8.687,38.561 8.843,38.078 8.843,37.494 C8.843,36.907 8.684,36.421 8.367,36.036 C8.05,35.652 7.637,35.396 7.129,35.269 C6.78,35.181 6.1,35.138 5.088,35.138 L3.332,35.138 L3.332,43.964 Z" id="Fill-32" fill="#58595B"></path>
                <path d="M310.573,20.706 L312.218,20.706 L312.218,4.222 L310.573,4.222 L310.573,20.706 Z M300.68,20.662 L308.672,20.662 L308.672,19.072 L302.336,19.072 L302.336,4.178 L300.68,4.178 L300.68,20.662 Z M293.51,13.648 L287.863,13.648 L290.709,7.668 L293.51,13.648 Z M290.509,4.178 L282.717,20.662 L284.562,20.662 L287.13,15.227 L294.244,15.227 L296.833,20.662 L298.59,20.662 L290.909,4.178 L290.509,4.178 Z M277.181,12.826 L277.181,20.706 L278.804,20.706 L278.804,12.826 L284.017,4.222 L282.116,4.222 L277.982,11.003 L273.769,4.222 L271.857,4.222 L277.181,12.826 Z M268.066,13.648 L262.42,13.648 L265.265,7.668 L268.066,13.648 Z M265.065,4.178 L257.273,20.662 L259.119,20.662 L261.686,15.227 L268.8,15.227 L271.39,20.662 L273.146,20.662 L265.465,4.178 L265.065,4.178 Z M242.746,20.612 L244.806,20.612 L244.806,11.022 L247.288,8.839 L254.846,20.612 L257.506,20.612 L249.266,7.284 L256.755,0.382 L253.7,0.382 L244.806,8.185 L244.806,0.382 L242.746,0.382 L242.746,20.612 Z M231.689,20.706 L233.334,20.706 L233.334,4.222 L231.689,4.222 L231.689,20.706 Z M222.107,20.751 L222.463,20.751 L229.643,4.267 L227.842,4.267 L222.285,17.005 L216.827,4.267 L215.038,4.267 L222.107,20.751 Z M208.246,20.662 L216.238,20.662 L216.238,19.072 L209.902,19.072 L209.902,4.178 L208.246,4.178 L208.246,20.662 Z M189.558,12.209 C189.558,14.255 189.686,15.678 189.94,16.479 C190.331,17.752 191.107,18.779 192.266,19.562 C193.426,20.344 194.824,20.735 196.461,20.735 C199.053,20.735 200.878,20.323 201.938,19.5 C202.997,18.677 203.705,17.709 204.059,16.595 C204.414,15.481 204.591,14.019 204.591,12.209 L204.591,-1.13686838e-13 L202.572,-1.13686838e-13 L202.572,12.209 C202.572,13.8 202.499,14.851 202.354,15.36 C202.163,16.088 201.863,16.74 201.454,17.318 C201.045,17.895 200.258,18.329 199.094,18.62 C197.93,18.911 197.016,18.97 196.352,18.798 C195.579,18.798 194.812,18.618 194.053,18.259 C193.294,17.9 192.732,17.454 192.369,16.922 C192.005,16.39 191.773,15.724 191.673,14.923 C191.609,14.56 191.577,13.655 191.577,12.209 L191.577,-1.13686838e-13 L189.558,-1.13686838e-13 L189.558,12.209 Z M176.532,5.823 L176.532,20.706 L178.211,20.706 L178.211,5.823 L181.901,5.823 L181.901,4.222 L172.853,4.222 L172.853,5.823 L176.532,5.823 Z M158.881,13.904 C158.881,15.571 158.985,16.731 159.192,17.383 C159.511,18.42 160.143,19.258 161.087,19.895 C162.032,20.532 163.172,20.851 164.505,20.851 C166.617,20.851 168.105,20.516 168.968,19.845 C169.831,19.174 170.408,18.385 170.697,17.477 C170.986,16.57 171.13,15.379 171.13,13.904 L171.13,3.956 L169.485,3.956 L169.485,13.904 C169.485,15.201 169.426,16.057 169.307,16.471 C169.151,17.064 168.907,17.596 168.574,18.067 C168.24,18.537 167.599,18.891 166.651,19.128 C165.702,19.365 164.957,19.413 164.416,19.273 C163.786,19.273 163.162,19.126 162.544,18.833 C161.925,18.541 161.467,18.178 161.171,17.744 C160.874,17.311 160.685,16.768 160.604,16.116 C160.552,15.82 160.526,15.082 160.526,13.904 L160.526,3.956 L158.881,3.956 L158.881,13.904 Z M139.062,20.706 L140.663,8.835 L146.565,20.706 L146.987,20.706 L152.812,8.913 L154.423,20.706 L156.057,20.706 L153.679,4.222 L153.412,4.222 L146.787,17.739 L140.085,4.222 L139.818,4.222 L137.473,20.706 L139.062,20.706 Z M123.011,20.706 L124.667,20.706 L124.667,12.759 L133.059,12.759 L133.059,20.706 L134.704,20.706 L134.704,4.222 L133.059,4.222 L133.059,11.136 L124.667,11.136 L124.667,4.222 L123.011,4.222 L123.011,20.706 Z M115.864,13.648 L110.217,13.648 L113.063,7.668 L115.864,13.648 Z M112.863,4.178 L105.071,20.662 L106.916,20.662 L109.484,15.227 L116.597,15.227 L119.187,20.662 L120.943,20.662 L113.263,4.178 L112.863,4.178 Z M82.713,20.557 L84.677,5.988 L91.921,20.557 L92.439,20.557 L99.587,6.084 L101.565,20.557 L103.571,20.557 L100.651,0.327 L100.324,0.327 L92.194,16.915 L83.968,0.327 L83.64,0.327 L80.762,20.557 L82.713,20.557 Z" id="Fill-33" fill="#58595B"></path>
                <path d="M28.053,5.593 C29.164,5.593 29.965,5.69 30.454,5.882 C30.943,6.075 31.337,6.401 31.638,6.86 C31.938,7.32 32.088,7.831 32.088,8.394 C32.088,8.95 31.938,9.46 31.638,9.923 C31.337,10.386 30.926,10.719 30.404,10.923 C29.881,11.127 29.061,11.229 27.942,11.229 L25.141,11.195 L25.141,5.593 L28.053,5.593 Z M23.496,20.476 L25.141,20.476 L25.141,12.807 L26.319,12.807 C28.364,12.807 29.761,12.718 30.509,12.54 C31.532,12.296 32.334,11.816 32.916,11.101 C33.497,10.386 33.788,9.483 33.788,8.394 C33.788,7.298 33.492,6.39 32.899,5.671 C32.306,4.952 31.536,4.474 30.587,4.237 C29.935,4.074 28.664,3.993 26.775,3.993 L23.496,3.993 L23.496,20.476 Z M15.503,6.321 C16.607,6.955 17.463,7.801 18.071,8.861 C18.678,9.921 18.982,11.103 18.982,12.407 C18.982,13.459 18.678,14.521 18.071,15.591 C17.463,16.662 16.615,17.509 15.526,18.131 C14.436,18.754 13.254,19.065 11.98,19.065 C10.068,19.065 8.436,18.457 7.083,17.242 C5.731,16.027 5.055,14.441 5.055,12.485 C5.055,11.166 5.359,9.967 5.966,8.889 C6.574,7.811 7.424,6.955 8.517,6.321 C9.61,5.688 10.764,5.371 11.98,5.371 C13.225,5.371 14.399,5.688 15.503,6.321 L15.503,6.321 Z M7.611,4.898 C6.285,5.665 5.24,6.727 4.477,8.083 C3.714,9.439 3.332,10.906 3.332,12.485 C3.332,14.596 4.173,16.488 5.855,18.159 C7.537,19.83 9.601,20.665 12.046,20.665 C14.455,20.665 16.496,19.891 18.171,18.342 C19.846,16.794 20.683,14.815 20.683,12.407 C20.683,9.969 19.844,7.916 18.165,6.249 C16.487,4.582 14.403,3.748 11.913,3.748 C10.372,3.748 8.938,4.131 7.611,4.898 L7.611,4.898 Z" id="Fill-34" fill="#58595B"></path>
                <path d="M160.742,33.158 C160.607,33.295 160.54,33.459 160.54,33.649 C160.54,33.844 160.607,34.008 160.742,34.143 C160.877,34.278 161.042,34.346 161.236,34.346 C161.427,34.346 161.59,34.278 161.727,34.143 C161.864,34.008 161.932,33.844 161.932,33.649 C161.932,33.459 161.864,33.295 161.727,33.158 C161.59,33.021 161.427,32.953 161.236,32.953 C161.042,32.953 160.877,33.021 160.742,33.158" id="Fill-35" fill="#58595B"></path>
                <path d="M238.896,33.158 C238.761,33.295 238.694,33.459 238.694,33.649 C238.694,33.844 238.761,34.008 238.896,34.143 C239.031,34.278 239.196,34.346 239.39,34.346 C239.581,34.346 239.744,34.278 239.881,34.143 C240.018,34.008 240.086,33.844 240.086,33.649 C240.086,33.459 240.018,33.295 239.881,33.158 C239.744,33.021 239.581,32.953 239.39,32.953 C239.196,32.953 239.031,33.021 238.896,33.158" id="Fill-36" fill="#58595B"></path>
                <path d="M44.485,33.158 C44.35,33.295 44.282,33.459 44.282,33.649 C44.282,33.844 44.35,34.008 44.485,34.143 C44.619,34.278 44.784,34.346 44.979,34.346 C45.169,34.346 45.333,34.278 45.47,34.143 C45.606,34.008 45.675,33.844 45.675,33.649 C45.675,33.459 45.606,33.295 45.47,33.158 C45.333,33.021 45.169,32.953 44.979,32.953 C44.784,32.953 44.619,33.021 44.485,33.158" id="Fill-37" fill="#58595B"></path>
                <path d="M33.052,20.524 C33.613,20.524 34.067,20.089 34.067,19.553 C34.067,19.015 33.613,18.58 33.052,18.58 C32.492,18.58 32.038,19.015 32.038,19.553 C32.038,20.089 32.492,20.524 33.052,20.524" id="Fill-38" fill="#58595B"></path>
                <path d="M63.595,5.6489 C64.729,5.6489 65.536,5.7469 66.018,5.9429 C66.5,6.1399 66.891,6.4639 67.191,6.9159 C67.491,7.3679 67.641,7.8679 67.641,8.4159 C67.641,8.9869 67.495,9.5019 67.202,9.9609 C66.909,10.4209 66.498,10.7539 65.968,10.9619 C65.438,11.1689 64.625,11.2729 63.528,11.2729 L60.694,11.2509 L60.694,5.6489 L63.595,5.6489 Z M59.049,20.5209 L60.694,20.5209 L60.694,12.8509 L62.839,12.8509 L67.563,20.5209 L69.586,20.5209 L64.862,12.8509 C65.44,12.8509 66.124,12.6749 66.913,12.3229 C67.702,11.9719 68.308,11.4579 68.73,10.7839 C69.153,10.1099 69.364,9.3209 69.364,8.4159 C69.364,7.3419 69.056,6.4359 68.441,5.6989 C67.826,4.9609 67.03,4.4819 66.052,4.2589 C65.399,4.1109 64.158,4.0369 62.328,4.0369 L59.049,4.0369 L59.049,20.5209 Z M43.943,5.5929 L45.11,5.5929 C47.474,5.5929 49.174,5.7529 50.212,6.0709 C51.59,6.4859 52.663,7.2569 53.43,8.3829 C54.197,9.5099 54.58,10.8689 54.58,12.4619 C54.58,13.9809 54.225,15.2649 53.513,16.3139 C52.802,17.3619 51.827,18.0869 50.59,18.4869 C49.701,18.7689 48.118,18.9089 45.844,18.9089 L43.943,18.9089 L43.943,5.5929 Z M47.611,20.4759 C49.663,20.4759 51.258,20.1779 52.396,19.5819 C53.533,18.9849 54.46,18.0569 55.175,16.7969 C55.89,15.5379 56.247,14.0849 56.247,12.4399 C56.247,10.5279 55.797,8.8819 54.897,7.4989 C53.997,6.1169 52.75,5.1489 51.157,4.5929 C50.038,4.1929 48.245,3.9929 45.777,3.9929 L42.365,3.9929 L42.365,20.4759 L47.611,20.4759 Z" id="Fill-39" fill="#58595B"></path>
                <path d="M73.15,20.524 C73.71,20.524 74.164,20.089 74.164,19.553 C74.164,19.015 73.71,18.58 73.15,18.58 C72.59,18.58 72.135,19.015 72.135,19.553 C72.135,20.089 72.59,20.524 73.15,20.524" id="Fill-40" fill="#58595B"></path>
                <path d="M227.835,67.333 C228.325,67.333 228.722,66.935 228.722,66.445 C228.722,65.955 228.325,65.558 227.835,65.558 C227.345,65.558 226.948,65.955 226.948,66.445 C226.948,66.935 227.345,67.333 227.835,67.333" id="Fill-64" fill="#58595B"></path>
                <path d="M132.585,67.333 C133.075,67.333 133.472,66.935 133.472,66.445 C133.472,65.955 133.075,65.558 132.585,65.558 C132.095,65.558 131.698,65.955 131.698,66.445 C131.698,66.935 132.095,67.333 132.585,67.333" id="Fill-65" fill="#58595B"></path>
                <path d="M161.357,87.614 C161.846,87.614 162.244,87.217 162.244,86.727 C162.244,86.237 161.846,85.84 161.357,85.84 C160.867,85.84 160.469,86.237 160.469,86.727 C160.469,87.217 160.867,87.614 161.357,87.614" id="Fill-66" fill="#58595B"></path>
                <path d="M146.73,87.614 C147.22,87.614 147.617,87.217 147.617,86.727 C147.617,86.237 147.22,85.84 146.73,85.84 C146.24,85.84 145.843,86.237 145.843,86.727 C145.843,87.217 146.24,87.614 146.73,87.614" id="Fill-67" fill="#58595B"></path>
            </g>
        </g>
    </g>
</svg>